<svg id="Rewfa_Logo_CC" data-name="Rewfa Logo CC" xmlns="http://www.w3.org/2000/svg" width="123" height="122" viewBox="0 0 123 122">
  <path id="Path_20" data-name="Path 20" d="M120.031-295.3a10.767,10.767,0,0,0-2.933,1.167c-1.759,1-36.363,32.875-36,33.166.5.458,27.024-11.542,27.791-12.583a34.769,34.769,0,0,0,1.534-6.458c.857-4.75.947-5.917.451-6.625-.316-.458-.406-.958-.271-1.083a13.978,13.978,0,0,1,3.745-.292,11.781,11.781,0,0,1,6.045,1.167c2.887,1.292,4.782,3.125,5.188,4.958a3.179,3.179,0,0,0,.632,1.417c.361.208,5.459-1.333,10.512-3.167l1.353-.458-5.188-4.792C126.483-294.887,124-296.1,120.031-295.3Z" transform="translate(-60.463 295.521)" fill="#0091c7"/>
  <path id="Path_21" data-name="Path 21" d="M211.348-261.363c4.466,5.458,3.429,12.458-2.978,20.208-3.97,4.792-13.67,13.083-24.949,21.375-5.73,4.208-10.422,7.792-10.422,7.917a26.733,26.733,0,0,0,2.932,3.375c3.609,3.833,7.715,10.208,16.242,25.166,8.707,15.292,10.692,18.041,13.9,19.083,1.714.583.316-3.292-3.068-8.5a17.867,17.867,0,0,1-1.579-2.625,30.041,30.041,0,0,1,5.324-.25c4.151,0,5.685-.167,7.083-.792a8.28,8.28,0,0,0,4.737-4.958c.271-.917.451-7.458.451-16.333,0-16.583.045-16.833,3.339-19.458,1.8-1.5,2.12-1.583,6.948-2.167,3.835-.458,4.6-.917,4.6-2.667,0-1.083-1.083-2.292-7.489-8.25l-7.534-7,.722-3.458c1.218-6,1.263-6.458.767-9.375a17.271,17.271,0,0,0-7.4-11.75C209.859-263.779,209.453-263.654,211.348-261.363Z" transform="translate(-110.906 286.18)" fill="#0091c7"/>
  <path id="Path_22" data-name="Path 22" d="M189.995-255.189c-5.865,1.25-18.272,5.792-20.347,7.5-1.128.917-.947.25-6.045,22.916a39.557,39.557,0,0,0-1.128,6c.451.417,17.64-12.708,23.55-18,10.828-9.667,14.708-15.583,11.865-17.958C196.717-255.689,193.424-255.9,189.995-255.189Z" transform="translate(-105.117 272.239)" fill="#0091c7"/>
  <path id="Path_23" data-name="Path 23" d="M71.744-208.708c-12.723,6.542-17.234,8.542-19.309,8.583a7.661,7.661,0,0,1-5.459-2.333L45.893-203.5l-4.647,3.958c-5.053,4.333-6.451,6.292-5.685,7.917.5,1,.993,1.125,5.91,1.625,3.7.375,6.226,1.75,7.67,4.167.632,1.083.767,3.458.947,17.291.226,15.667.271,16.083,1.263,17.791a9.221,9.221,0,0,0,2.887,2.917c1.714,1.083,2.3,1.167,7.173,1.333,5.278.125,5.324.125,5.549-.833.677-2.75,4.331-21.916,4.331-22.75,0-.667-.541-1.292-1.8-2-3.519-2.042-3.474-3.833.09-6.375,4.737-3.333,4.466-2.875,7.083-14.875,1.308-5.958,2.842-12.792,3.429-15.208a27.587,27.587,0,0,0,.993-4.667C81.038-213.333,76.842-211.333,71.744-208.708Z" transform="translate(-35.365 247.508)" fill="#0091c7"/>
  <path id="Path_24" data-name="Path 24" d="M143.386-116.792c-1.85,8.083-6.271,31.458-6,31.666a18.119,18.119,0,0,0,2.752-2.667c4.286-4.667,3.248-4.292,12.587-4.292h8.211L154.168-104.5c-6.316-11.542-8.8-15.5-9.7-15.5A9.514,9.514,0,0,0,143.386-116.792Z" transform="translate(-91.352 193.133)" fill="#0091c7"/>
</svg>
